<mxfile host="app.diagrams.net" modified="2024-06-11T12:52:04.202Z" agent="Mozilla/5.0 (Windows NT 10.0; Win64; x64; rv:126.0) Gecko/20100101 Firefox/126.0" etag="V-OYhfZuJW69VQjUZLqk" version="24.5.2" type="device">
  <diagram name="Page-1" id="2cc2dc42-3aac-f2a9-1cec-7a8b7cbee084">
    <mxGraphModel dx="2074" dy="1106" grid="1" gridSize="10" guides="1" tooltips="1" connect="1" arrows="1" fold="1" page="1" pageScale="1" pageWidth="1100" pageHeight="850" background="none" math="0" shadow="0">
      <root>
        <mxCell id="0" />
        <mxCell id="1" parent="0" />
        <mxCell id="7026571954dc6520-1" value="" style="strokeWidth=1;shadow=0;dashed=0;align=center;html=1;shape=mxgraph.mockup.containers.browserWindow;rSize=0;strokeColor=#666666;mainText=,;recursiveResize=0;rounded=0;labelBackgroundColor=none;fontFamily=Verdana;fontSize=12" parent="1" vertex="1">
          <mxGeometry x="30" y="20" width="1050" height="820" as="geometry" />
        </mxCell>
        <mxCell id="7026571954dc6520-2" value="Page 1" style="strokeWidth=1;shadow=0;dashed=0;align=center;html=1;shape=mxgraph.mockup.containers.anchor;fontSize=17;fontColor=#666666;align=left;" parent="7026571954dc6520-1" vertex="1">
          <mxGeometry x="60" y="12" width="110" height="26" as="geometry" />
        </mxCell>
        <mxCell id="7026571954dc6520-3" value="&lt;div&gt;https://www.default.com/artists&lt;/div&gt;" style="strokeWidth=1;shadow=0;dashed=0;align=center;html=1;shape=mxgraph.mockup.containers.anchor;rSize=0;fontSize=17;fontColor=#666666;align=left;" parent="7026571954dc6520-1" vertex="1">
          <mxGeometry x="130" y="60" width="250" height="26" as="geometry" />
        </mxCell>
        <mxCell id="7026571954dc6520-16" value="Artists" style="text;html=1;points=[];align=left;verticalAlign=top;spacingTop=-4;fontSize=15;fontFamily=Verdana" parent="7026571954dc6520-1" vertex="1">
          <mxGeometry x="440" y="210" width="170" height="30" as="geometry" />
        </mxCell>
        <mxCell id="Au9KBMOpigVklPiua_w_-5" value="" style="rounded=0;whiteSpace=wrap;html=1;" vertex="1" parent="7026571954dc6520-1">
          <mxGeometry x="-5" y="110" width="1050" height="60" as="geometry" />
        </mxCell>
        <mxCell id="7026571954dc6520-18" value="&lt;div&gt;Home&lt;/div&gt;" style="strokeWidth=1;shadow=0;dashed=0;align=center;html=1;shape=mxgraph.mockup.buttons.button;strokeColor=#666666;mainText=;buttonStyle=round;fontSize=17;fontStyle=0;fillColor=none;whiteSpace=wrap;rounded=0;labelBackgroundColor=none;" parent="7026571954dc6520-1" vertex="1">
          <mxGeometry y="110" width="220" height="60" as="geometry" />
        </mxCell>
        <mxCell id="Au9KBMOpigVklPiua_w_-6" value="Albums" style="strokeWidth=1;shadow=0;dashed=0;align=center;html=1;shape=mxgraph.mockup.buttons.button;strokeColor=#666666;mainText=;buttonStyle=round;fontSize=17;fontStyle=0;fillColor=none;whiteSpace=wrap;rounded=0;labelBackgroundColor=none;" vertex="1" parent="7026571954dc6520-1">
          <mxGeometry x="220" y="110" width="220" height="60" as="geometry" />
        </mxCell>
        <mxCell id="Au9KBMOpigVklPiua_w_-7" value="Songs" style="strokeWidth=1;shadow=0;dashed=0;align=center;html=1;shape=mxgraph.mockup.buttons.button;strokeColor=#666666;mainText=;buttonStyle=round;fontSize=17;fontStyle=0;fillColor=none;whiteSpace=wrap;rounded=0;labelBackgroundColor=none;" vertex="1" parent="7026571954dc6520-1">
          <mxGeometry x="440" y="110" width="220" height="60" as="geometry" />
        </mxCell>
        <mxCell id="Au9KBMOpigVklPiua_w_-8" value="Artists" style="strokeWidth=1;shadow=0;dashed=0;align=center;html=1;shape=mxgraph.mockup.buttons.button;strokeColor=#666666;mainText=;buttonStyle=round;fontSize=17;fontStyle=0;fillColor=none;whiteSpace=wrap;rounded=0;labelBackgroundColor=none;" vertex="1" parent="7026571954dc6520-1">
          <mxGeometry x="660" y="110" width="220" height="60" as="geometry" />
        </mxCell>
        <mxCell id="Au9KBMOpigVklPiua_w_-29" value="" style="verticalLabelPosition=bottom;shadow=0;dashed=0;align=center;html=1;verticalAlign=top;strokeWidth=1;shape=mxgraph.mockup.graphics.simpleIcon;strokeColor=#999999;" vertex="1" parent="7026571954dc6520-1">
          <mxGeometry x="75" y="270" width="90" height="90" as="geometry" />
        </mxCell>
        <mxCell id="Au9KBMOpigVklPiua_w_-61" value="Artist name" style="text;spacingTop=-5;whiteSpace=wrap;html=1;align=left;fontSize=12;fontFamily=Helvetica;fillColor=none;strokeColor=none;" vertex="1" parent="7026571954dc6520-1">
          <mxGeometry x="80" y="370" width="80" height="20" as="geometry" />
        </mxCell>
        <mxCell id="Au9KBMOpigVklPiua_w_-62" value="" style="verticalLabelPosition=bottom;shadow=0;dashed=0;align=center;html=1;verticalAlign=top;strokeWidth=1;shape=mxgraph.mockup.graphics.simpleIcon;strokeColor=#999999;" vertex="1" parent="7026571954dc6520-1">
          <mxGeometry x="190" y="270" width="90" height="90" as="geometry" />
        </mxCell>
        <mxCell id="Au9KBMOpigVklPiua_w_-63" value="Artist name" style="text;spacingTop=-5;whiteSpace=wrap;html=1;align=left;fontSize=12;fontFamily=Helvetica;fillColor=none;strokeColor=none;" vertex="1" parent="7026571954dc6520-1">
          <mxGeometry x="195" y="370" width="80" height="20" as="geometry" />
        </mxCell>
        <mxCell id="Au9KBMOpigVklPiua_w_-64" value="" style="verticalLabelPosition=bottom;shadow=0;dashed=0;align=center;html=1;verticalAlign=top;strokeWidth=1;shape=mxgraph.mockup.graphics.simpleIcon;strokeColor=#999999;" vertex="1" parent="7026571954dc6520-1">
          <mxGeometry x="300" y="270" width="90" height="90" as="geometry" />
        </mxCell>
        <mxCell id="Au9KBMOpigVklPiua_w_-65" value="Artist name" style="text;spacingTop=-5;whiteSpace=wrap;html=1;align=left;fontSize=12;fontFamily=Helvetica;fillColor=none;strokeColor=none;" vertex="1" parent="7026571954dc6520-1">
          <mxGeometry x="305" y="370" width="80" height="20" as="geometry" />
        </mxCell>
        <mxCell id="Au9KBMOpigVklPiua_w_-66" value="" style="verticalLabelPosition=bottom;shadow=0;dashed=0;align=center;html=1;verticalAlign=top;strokeWidth=1;shape=mxgraph.mockup.graphics.simpleIcon;strokeColor=#999999;" vertex="1" parent="7026571954dc6520-1">
          <mxGeometry x="415" y="270" width="90" height="90" as="geometry" />
        </mxCell>
        <mxCell id="Au9KBMOpigVklPiua_w_-67" value="Artist name" style="text;spacingTop=-5;whiteSpace=wrap;html=1;align=left;fontSize=12;fontFamily=Helvetica;fillColor=none;strokeColor=none;" vertex="1" parent="7026571954dc6520-1">
          <mxGeometry x="420" y="370" width="80" height="20" as="geometry" />
        </mxCell>
        <mxCell id="Au9KBMOpigVklPiua_w_-68" value="" style="verticalLabelPosition=bottom;shadow=0;dashed=0;align=center;html=1;verticalAlign=top;strokeWidth=1;shape=mxgraph.mockup.graphics.simpleIcon;strokeColor=#999999;" vertex="1" parent="7026571954dc6520-1">
          <mxGeometry x="530" y="270" width="90" height="90" as="geometry" />
        </mxCell>
        <mxCell id="Au9KBMOpigVklPiua_w_-69" value="Artist name" style="text;spacingTop=-5;whiteSpace=wrap;html=1;align=left;fontSize=12;fontFamily=Helvetica;fillColor=none;strokeColor=none;" vertex="1" parent="7026571954dc6520-1">
          <mxGeometry x="535" y="370" width="80" height="20" as="geometry" />
        </mxCell>
        <mxCell id="Au9KBMOpigVklPiua_w_-70" value="" style="verticalLabelPosition=bottom;shadow=0;dashed=0;align=center;html=1;verticalAlign=top;strokeWidth=1;shape=mxgraph.mockup.graphics.simpleIcon;strokeColor=#999999;" vertex="1" parent="7026571954dc6520-1">
          <mxGeometry x="645" y="270" width="90" height="90" as="geometry" />
        </mxCell>
        <mxCell id="Au9KBMOpigVklPiua_w_-71" value="Artist name" style="text;spacingTop=-5;whiteSpace=wrap;html=1;align=left;fontSize=12;fontFamily=Helvetica;fillColor=none;strokeColor=none;" vertex="1" parent="7026571954dc6520-1">
          <mxGeometry x="650" y="369" width="80" height="20" as="geometry" />
        </mxCell>
        <mxCell id="Au9KBMOpigVklPiua_w_-72" value="" style="verticalLabelPosition=bottom;shadow=0;dashed=0;align=center;html=1;verticalAlign=top;strokeWidth=1;shape=mxgraph.mockup.graphics.simpleIcon;strokeColor=#999999;" vertex="1" parent="7026571954dc6520-1">
          <mxGeometry x="760" y="270" width="90" height="90" as="geometry" />
        </mxCell>
        <mxCell id="Au9KBMOpigVklPiua_w_-73" value="Artist name" style="text;spacingTop=-5;whiteSpace=wrap;html=1;align=left;fontSize=12;fontFamily=Helvetica;fillColor=none;strokeColor=none;" vertex="1" parent="7026571954dc6520-1">
          <mxGeometry x="765" y="370" width="80" height="20" as="geometry" />
        </mxCell>
        <mxCell id="Au9KBMOpigVklPiua_w_-74" value="" style="verticalLabelPosition=bottom;shadow=0;dashed=0;align=center;html=1;verticalAlign=top;strokeWidth=1;shape=mxgraph.mockup.graphics.simpleIcon;strokeColor=#999999;" vertex="1" parent="7026571954dc6520-1">
          <mxGeometry x="875" y="270" width="90" height="90" as="geometry" />
        </mxCell>
        <mxCell id="Au9KBMOpigVklPiua_w_-75" value="Artist name" style="text;spacingTop=-5;whiteSpace=wrap;html=1;align=left;fontSize=12;fontFamily=Helvetica;fillColor=none;strokeColor=none;" vertex="1" parent="7026571954dc6520-1">
          <mxGeometry x="880" y="370" width="80" height="20" as="geometry" />
        </mxCell>
        <mxCell id="Au9KBMOpigVklPiua_w_-76" value="" style="verticalLabelPosition=bottom;shadow=0;dashed=0;align=center;html=1;verticalAlign=top;strokeWidth=1;shape=mxgraph.mockup.graphics.simpleIcon;strokeColor=#999999;" vertex="1" parent="7026571954dc6520-1">
          <mxGeometry x="75" y="410" width="90" height="90" as="geometry" />
        </mxCell>
        <mxCell id="Au9KBMOpigVklPiua_w_-77" value="Artist name" style="text;spacingTop=-5;whiteSpace=wrap;html=1;align=left;fontSize=12;fontFamily=Helvetica;fillColor=none;strokeColor=none;" vertex="1" parent="7026571954dc6520-1">
          <mxGeometry x="80" y="510" width="80" height="20" as="geometry" />
        </mxCell>
        <mxCell id="Au9KBMOpigVklPiua_w_-78" value="" style="verticalLabelPosition=bottom;shadow=0;dashed=0;align=center;html=1;verticalAlign=top;strokeWidth=1;shape=mxgraph.mockup.graphics.simpleIcon;strokeColor=#999999;" vertex="1" parent="7026571954dc6520-1">
          <mxGeometry x="190" y="410" width="90" height="90" as="geometry" />
        </mxCell>
        <mxCell id="Au9KBMOpigVklPiua_w_-79" value="Artist name" style="text;spacingTop=-5;whiteSpace=wrap;html=1;align=left;fontSize=12;fontFamily=Helvetica;fillColor=none;strokeColor=none;" vertex="1" parent="7026571954dc6520-1">
          <mxGeometry x="195" y="510" width="80" height="20" as="geometry" />
        </mxCell>
        <mxCell id="Au9KBMOpigVklPiua_w_-80" value="" style="verticalLabelPosition=bottom;shadow=0;dashed=0;align=center;html=1;verticalAlign=top;strokeWidth=1;shape=mxgraph.mockup.graphics.simpleIcon;strokeColor=#999999;" vertex="1" parent="7026571954dc6520-1">
          <mxGeometry x="300" y="410" width="90" height="90" as="geometry" />
        </mxCell>
        <mxCell id="Au9KBMOpigVklPiua_w_-81" value="Artist name" style="text;spacingTop=-5;whiteSpace=wrap;html=1;align=left;fontSize=12;fontFamily=Helvetica;fillColor=none;strokeColor=none;" vertex="1" parent="7026571954dc6520-1">
          <mxGeometry x="305" y="510" width="80" height="20" as="geometry" />
        </mxCell>
        <mxCell id="Au9KBMOpigVklPiua_w_-82" value="" style="verticalLabelPosition=bottom;shadow=0;dashed=0;align=center;html=1;verticalAlign=top;strokeWidth=1;shape=mxgraph.mockup.graphics.simpleIcon;strokeColor=#999999;" vertex="1" parent="7026571954dc6520-1">
          <mxGeometry x="415" y="410" width="90" height="90" as="geometry" />
        </mxCell>
        <mxCell id="Au9KBMOpigVklPiua_w_-83" value="Artist name" style="text;spacingTop=-5;whiteSpace=wrap;html=1;align=left;fontSize=12;fontFamily=Helvetica;fillColor=none;strokeColor=none;" vertex="1" parent="7026571954dc6520-1">
          <mxGeometry x="420" y="510" width="80" height="20" as="geometry" />
        </mxCell>
        <mxCell id="Au9KBMOpigVklPiua_w_-84" value="" style="verticalLabelPosition=bottom;shadow=0;dashed=0;align=center;html=1;verticalAlign=top;strokeWidth=1;shape=mxgraph.mockup.graphics.simpleIcon;strokeColor=#999999;" vertex="1" parent="7026571954dc6520-1">
          <mxGeometry x="530" y="410" width="90" height="90" as="geometry" />
        </mxCell>
        <mxCell id="Au9KBMOpigVklPiua_w_-85" value="Artist name" style="text;spacingTop=-5;whiteSpace=wrap;html=1;align=left;fontSize=12;fontFamily=Helvetica;fillColor=none;strokeColor=none;" vertex="1" parent="7026571954dc6520-1">
          <mxGeometry x="535" y="510" width="80" height="20" as="geometry" />
        </mxCell>
        <mxCell id="Au9KBMOpigVklPiua_w_-86" value="" style="verticalLabelPosition=bottom;shadow=0;dashed=0;align=center;html=1;verticalAlign=top;strokeWidth=1;shape=mxgraph.mockup.graphics.simpleIcon;strokeColor=#999999;" vertex="1" parent="7026571954dc6520-1">
          <mxGeometry x="645" y="410" width="90" height="90" as="geometry" />
        </mxCell>
        <mxCell id="Au9KBMOpigVklPiua_w_-87" value="Artist name" style="text;spacingTop=-5;whiteSpace=wrap;html=1;align=left;fontSize=12;fontFamily=Helvetica;fillColor=none;strokeColor=none;" vertex="1" parent="7026571954dc6520-1">
          <mxGeometry x="650" y="510" width="80" height="20" as="geometry" />
        </mxCell>
        <mxCell id="Au9KBMOpigVklPiua_w_-88" value="" style="verticalLabelPosition=bottom;shadow=0;dashed=0;align=center;html=1;verticalAlign=top;strokeWidth=1;shape=mxgraph.mockup.graphics.simpleIcon;strokeColor=#999999;" vertex="1" parent="7026571954dc6520-1">
          <mxGeometry x="760" y="410" width="90" height="90" as="geometry" />
        </mxCell>
        <mxCell id="Au9KBMOpigVklPiua_w_-89" value="Artist name" style="text;spacingTop=-5;whiteSpace=wrap;html=1;align=left;fontSize=12;fontFamily=Helvetica;fillColor=none;strokeColor=none;" vertex="1" parent="7026571954dc6520-1">
          <mxGeometry x="765" y="510" width="80" height="20" as="geometry" />
        </mxCell>
        <mxCell id="Au9KBMOpigVklPiua_w_-90" value="" style="verticalLabelPosition=bottom;shadow=0;dashed=0;align=center;html=1;verticalAlign=top;strokeWidth=1;shape=mxgraph.mockup.graphics.simpleIcon;strokeColor=#999999;" vertex="1" parent="7026571954dc6520-1">
          <mxGeometry x="875" y="410" width="90" height="90" as="geometry" />
        </mxCell>
        <mxCell id="Au9KBMOpigVklPiua_w_-91" value="Artist name" style="text;spacingTop=-5;whiteSpace=wrap;html=1;align=left;fontSize=12;fontFamily=Helvetica;fillColor=none;strokeColor=none;" vertex="1" parent="7026571954dc6520-1">
          <mxGeometry x="880" y="510" width="80" height="20" as="geometry" />
        </mxCell>
        <mxCell id="Au9KBMOpigVklPiua_w_-92" value="" style="verticalLabelPosition=bottom;shadow=0;dashed=0;align=center;html=1;verticalAlign=top;strokeWidth=1;shape=mxgraph.mockup.graphics.simpleIcon;strokeColor=#999999;" vertex="1" parent="7026571954dc6520-1">
          <mxGeometry x="75" y="550" width="90" height="90" as="geometry" />
        </mxCell>
        <mxCell id="Au9KBMOpigVklPiua_w_-93" value="Artist name" style="text;spacingTop=-5;whiteSpace=wrap;html=1;align=left;fontSize=12;fontFamily=Helvetica;fillColor=none;strokeColor=none;" vertex="1" parent="7026571954dc6520-1">
          <mxGeometry x="80" y="650" width="80" height="20" as="geometry" />
        </mxCell>
        <mxCell id="Au9KBMOpigVklPiua_w_-94" value="" style="verticalLabelPosition=bottom;shadow=0;dashed=0;align=center;html=1;verticalAlign=top;strokeWidth=1;shape=mxgraph.mockup.graphics.simpleIcon;strokeColor=#999999;" vertex="1" parent="7026571954dc6520-1">
          <mxGeometry x="190" y="550" width="90" height="90" as="geometry" />
        </mxCell>
        <mxCell id="Au9KBMOpigVklPiua_w_-95" value="Artist name" style="text;spacingTop=-5;whiteSpace=wrap;html=1;align=left;fontSize=12;fontFamily=Helvetica;fillColor=none;strokeColor=none;" vertex="1" parent="7026571954dc6520-1">
          <mxGeometry x="195" y="650" width="80" height="20" as="geometry" />
        </mxCell>
        <mxCell id="Au9KBMOpigVklPiua_w_-96" value="" style="verticalLabelPosition=bottom;shadow=0;dashed=0;align=center;html=1;verticalAlign=top;strokeWidth=1;shape=mxgraph.mockup.graphics.simpleIcon;strokeColor=#999999;" vertex="1" parent="7026571954dc6520-1">
          <mxGeometry x="300" y="550" width="90" height="90" as="geometry" />
        </mxCell>
        <mxCell id="Au9KBMOpigVklPiua_w_-97" value="Artist name" style="text;spacingTop=-5;whiteSpace=wrap;html=1;align=left;fontSize=12;fontFamily=Helvetica;fillColor=none;strokeColor=none;" vertex="1" parent="7026571954dc6520-1">
          <mxGeometry x="305" y="650" width="80" height="20" as="geometry" />
        </mxCell>
        <mxCell id="Au9KBMOpigVklPiua_w_-98" value="" style="verticalLabelPosition=bottom;shadow=0;dashed=0;align=center;html=1;verticalAlign=top;strokeWidth=1;shape=mxgraph.mockup.graphics.simpleIcon;strokeColor=#999999;" vertex="1" parent="7026571954dc6520-1">
          <mxGeometry x="415" y="550" width="90" height="90" as="geometry" />
        </mxCell>
        <mxCell id="Au9KBMOpigVklPiua_w_-99" value="Artist name" style="text;spacingTop=-5;whiteSpace=wrap;html=1;align=left;fontSize=12;fontFamily=Helvetica;fillColor=none;strokeColor=none;" vertex="1" parent="7026571954dc6520-1">
          <mxGeometry x="420" y="650" width="80" height="20" as="geometry" />
        </mxCell>
        <mxCell id="Au9KBMOpigVklPiua_w_-100" value="" style="verticalLabelPosition=bottom;shadow=0;dashed=0;align=center;html=1;verticalAlign=top;strokeWidth=1;shape=mxgraph.mockup.graphics.simpleIcon;strokeColor=#999999;" vertex="1" parent="7026571954dc6520-1">
          <mxGeometry x="530" y="550" width="90" height="90" as="geometry" />
        </mxCell>
        <mxCell id="Au9KBMOpigVklPiua_w_-101" value="Artist name" style="text;spacingTop=-5;whiteSpace=wrap;html=1;align=left;fontSize=12;fontFamily=Helvetica;fillColor=none;strokeColor=none;" vertex="1" parent="7026571954dc6520-1">
          <mxGeometry x="535" y="650" width="80" height="20" as="geometry" />
        </mxCell>
        <mxCell id="Au9KBMOpigVklPiua_w_-102" value="" style="verticalLabelPosition=bottom;shadow=0;dashed=0;align=center;html=1;verticalAlign=top;strokeWidth=1;shape=mxgraph.mockup.graphics.simpleIcon;strokeColor=#999999;" vertex="1" parent="7026571954dc6520-1">
          <mxGeometry x="645" y="550" width="90" height="90" as="geometry" />
        </mxCell>
        <mxCell id="Au9KBMOpigVklPiua_w_-103" value="Artist name" style="text;spacingTop=-5;whiteSpace=wrap;html=1;align=left;fontSize=12;fontFamily=Helvetica;fillColor=none;strokeColor=none;" vertex="1" parent="7026571954dc6520-1">
          <mxGeometry x="650" y="650" width="80" height="20" as="geometry" />
        </mxCell>
        <mxCell id="Au9KBMOpigVklPiua_w_-104" value="" style="verticalLabelPosition=bottom;shadow=0;dashed=0;align=center;html=1;verticalAlign=top;strokeWidth=1;shape=mxgraph.mockup.graphics.simpleIcon;strokeColor=#999999;" vertex="1" parent="7026571954dc6520-1">
          <mxGeometry x="760" y="550" width="90" height="90" as="geometry" />
        </mxCell>
        <mxCell id="Au9KBMOpigVklPiua_w_-105" value="Artist name" style="text;spacingTop=-5;whiteSpace=wrap;html=1;align=left;fontSize=12;fontFamily=Helvetica;fillColor=none;strokeColor=none;" vertex="1" parent="7026571954dc6520-1">
          <mxGeometry x="765" y="650" width="80" height="20" as="geometry" />
        </mxCell>
        <mxCell id="Au9KBMOpigVklPiua_w_-106" value="" style="verticalLabelPosition=bottom;shadow=0;dashed=0;align=center;html=1;verticalAlign=top;strokeWidth=1;shape=mxgraph.mockup.graphics.simpleIcon;strokeColor=#999999;" vertex="1" parent="7026571954dc6520-1">
          <mxGeometry x="875" y="550" width="90" height="90" as="geometry" />
        </mxCell>
        <mxCell id="Au9KBMOpigVklPiua_w_-107" value="Artist name" style="text;spacingTop=-5;whiteSpace=wrap;html=1;align=left;fontSize=12;fontFamily=Helvetica;fillColor=none;strokeColor=none;" vertex="1" parent="7026571954dc6520-1">
          <mxGeometry x="880" y="650" width="80" height="20" as="geometry" />
        </mxCell>
      </root>
    </mxGraphModel>
  </diagram>
</mxfile>
